<?xml version="1.0" encoding="UTF-8" standalone="no"?>
<!DOCTYPE svg PUBLIC "-//W3C//DTD SVG 1.1//EN"
 "http://www.w3.org/Graphics/SVG/1.1/DTD/svg11.dtd">
<!-- Generated by graphviz version 14.1.5 (20260411.2331)
 -->
<!-- Pages: 1 -->
<svg width="1343pt" height="780pt"
 viewBox="0.00 0.00 1343.00 780.00" xmlns="http://www.w3.org/2000/svg" xmlns:xlink="http://www.w3.org/1999/xlink">
<g id="graph0" class="graph" transform="scale(1 1) rotate(0) translate(36 743.6)">
<polygon fill="#181818" stroke="none" points="-36,36 -36,-743.6 1306.8,-743.6 1306.8,36 -36,36"/>
<!-- begin -->
<g id="node1" class="node">
<title>begin</title>
<path fill="#333333" stroke="#aaaaaa" d="M763.83,-707.6C763.83,-707.6 418.53,-707.6 418.53,-707.6 412.53,-707.6 406.53,-701.6 406.53,-695.6 406.53,-695.6 406.53,-629.8 406.53,-629.8 406.53,-623.8 412.53,-617.8 418.53,-617.8 418.53,-617.8 763.83,-617.8 763.83,-617.8 769.83,-617.8 775.83,-623.8 775.83,-629.8 775.83,-629.8 775.83,-695.6 775.83,-695.6 775.83,-701.6 769.83,-707.6 763.83,-707.6"/>
<text xml:space="preserve" text-anchor="start" x="420.93" y="-679.9" font-family="Helvetica,sans-Serif" font-size="14.00" fill="#e6e6e6">TEXT:</text>
<text xml:space="preserve" text-anchor="start" x="420.93" y="-664.9" font-family="Helvetica,sans-Serif" font-size="14.00" fill="#e6e6e6">Hello. You have {player.gold} gold. Want to buy a flower?</text>
<text xml:space="preserve" text-anchor="start" x="420.93" y="-633.9" font-family="Helvetica,sans-Serif" font-size="14.00" fill="#e6e6e6">EFFECTS:</text>
</g>
<!-- buy_flower -->
<g id="node2" class="node">
<title>buy_flower</title>
<path fill="#333333" stroke="#aaaaaa" d="M815.58,-398.7C815.58,-398.7 366.78,-398.7 366.78,-398.7 360.78,-398.7 354.78,-392.7 354.78,-386.7 354.78,-386.7 354.78,-290.9 354.78,-290.9 354.78,-284.9 360.78,-278.9 366.78,-278.9 366.78,-278.9 815.58,-278.9 815.58,-278.9 821.58,-278.9 827.58,-284.9 827.58,-290.9 827.58,-290.9 827.58,-386.7 827.58,-386.7 827.58,-392.7 821.58,-398.7 815.58,-398.7"/>
<text xml:space="preserve" text-anchor="start" x="369.18" y="-371" font-family="Helvetica,sans-Serif" font-size="14.00" fill="#e6e6e6">TEXT:</text>
<text xml:space="preserve" text-anchor="start" x="369.18" y="-356" font-family="Helvetica,sans-Serif" font-size="14.00" fill="#e6e6e6">Thanks. You now have {player.gold} gold. Want to buy another?</text>
<text xml:space="preserve" text-anchor="start" x="369.18" y="-325" font-family="Helvetica,sans-Serif" font-size="14.00" fill="#e6e6e6">EFFECTS:</text>
<text xml:space="preserve" text-anchor="start" x="369.18" y="-310" font-family="Helvetica,sans-Serif" font-size="14.00" fill="#e6e6e6">{type: modify_list, target: player.inventory, append: Flower, remove: None}</text>
<text xml:space="preserve" text-anchor="start" x="369.18" y="-295" font-family="Helvetica,sans-Serif" font-size="14.00" fill="#e6e6e6">{type: modify_list, target: alice.inventory, append: None, remove: Flower}</text>
</g>
<!-- begin&#45;&gt;buy_flower -->
<g id="edge1" class="edge">
<title>begin&#45;&gt;buy_flower</title>
<path fill="none" stroke="#cccccc" d="M591.18,-617.62C591.18,-564.29 591.18,-473.81 591.18,-410.65"/>
<polygon fill="#cccccc" stroke="#cccccc" points="594.68,-410.71 591.18,-400.71 587.68,-410.71 594.68,-410.71"/>
<text xml:space="preserve" text-anchor="start" x="591.18" y="-568.5" font-family="Helvetica,sans-Serif" font-size="14.00" fill="#e6e6e6">TEXT:</text>
<text xml:space="preserve" text-anchor="start" x="591.18" y="-553.5" font-family="Helvetica,sans-Serif" font-size="14.00" fill="#e6e6e6">Yes, I&#39;ll buy a flower.</text>
<text xml:space="preserve" text-anchor="start" x="591.18" y="-522.5" font-family="Helvetica,sans-Serif" font-size="14.00" fill="#e6e6e6">FILTERS:</text>
<text xml:space="preserve" text-anchor="start" x="591.18" y="-507.5" font-family="Helvetica,sans-Serif" font-size="14.00" fill="#e6e6e6">{type: check_value, path: player.gold, op: &gt;=, value: 1}</text>
<text xml:space="preserve" text-anchor="start" x="591.18" y="-460.5" font-family="Helvetica,sans-Serif" font-size="14.00" fill="#e6e6e6">EFFECTS:</text>
<text xml:space="preserve" text-anchor="start" x="591.18" y="-445.5" font-family="Helvetica,sans-Serif" font-size="14.00" fill="#e6e6e6">{type: modify_value, target: player.gold, delta: &#45;1}</text>
</g>
<!-- insufficient_gold -->
<g id="node3" class="node">
<title>insufficient_gold</title>
<path fill="#333333" stroke="#aaaaaa" d="M362.95,-89.8C362.95,-89.8 171.4,-89.8 171.4,-89.8 165.4,-89.8 159.4,-83.8 159.4,-77.8 159.4,-77.8 159.4,-12 159.4,-12 159.4,-6 165.4,0 171.4,0 171.4,0 362.95,0 362.95,0 368.95,0 374.95,-6 374.95,-12 374.95,-12 374.95,-77.8 374.95,-77.8 374.95,-83.8 368.95,-89.8 362.95,-89.8"/>
<text xml:space="preserve" text-anchor="start" x="173.8" y="-62.1" font-family="Helvetica,sans-Serif" font-size="14.00" fill="#e6e6e6">TEXT:</text>
<text xml:space="preserve" text-anchor="start" x="173.8" y="-47.1" font-family="Helvetica,sans-Serif" font-size="14.00" fill="#e6e6e6">You don&#39;t have enough money.</text>
<text xml:space="preserve" text-anchor="start" x="173.8" y="-16.1" font-family="Helvetica,sans-Serif" font-size="14.00" fill="#e6e6e6">EFFECTS:</text>
</g>
<!-- begin&#45;&gt;insufficient_gold -->
<g id="edge2" class="edge">
<title>begin&#45;&gt;insufficient_gold</title>
<path fill="none" stroke="#cccccc" d="M406.35,-633.35C274.01,-602.35 104.79,-538.39 19.93,-407.8 -53.18,-295.31 91.69,-166.1 188.97,-96.57"/>
<polygon fill="#cccccc" stroke="#cccccc" points="190.84,-99.53 196.99,-90.9 186.8,-93.81 190.84,-99.53"/>
<text xml:space="preserve" text-anchor="start" x="19.93" y="-379.5" font-family="Helvetica,sans-Serif" font-size="14.00" fill="#e6e6e6">TEXT:</text>
<text xml:space="preserve" text-anchor="start" x="19.93" y="-364.5" font-family="Helvetica,sans-Serif" font-size="14.00" fill="#e6e6e6">Well, can I buy one with {player.gold} gold?</text>
<text xml:space="preserve" text-anchor="start" x="19.93" y="-333.5" font-family="Helvetica,sans-Serif" font-size="14.00" fill="#e6e6e6">FILTERS:</text>
<text xml:space="preserve" text-anchor="start" x="19.93" y="-318.5" font-family="Helvetica,sans-Serif" font-size="14.00" fill="#e6e6e6">{type: check_value, path: player.gold, op: &lt;, value: 1}</text>
</g>
<!-- end -->
<g id="node4" class="node">
<title>end</title>
<path fill="#333333" stroke="#aaaaaa" d="M1070.83,-89.8C1070.83,-89.8 971.53,-89.8 971.53,-89.8 965.53,-89.8 959.53,-83.8 959.53,-77.8 959.53,-77.8 959.53,-12 959.53,-12 959.53,-6 965.53,0 971.53,0 971.53,0 1070.83,0 1070.83,0 1076.83,0 1082.83,-6 1082.83,-12 1082.83,-12 1082.83,-77.8 1082.83,-77.8 1082.83,-83.8 1076.83,-89.8 1070.83,-89.8"/>
<text xml:space="preserve" text-anchor="start" x="973.93" y="-62.1" font-family="Helvetica,sans-Serif" font-size="14.00" fill="#e6e6e6">TEXT:</text>
<text xml:space="preserve" text-anchor="start" x="973.93" y="-47.1" font-family="Helvetica,sans-Serif" font-size="14.00" fill="#e6e6e6">Okay, goodbye.</text>
<text xml:space="preserve" text-anchor="start" x="973.93" y="-16.1" font-family="Helvetica,sans-Serif" font-size="14.00" fill="#e6e6e6">EFFECTS:</text>
</g>
<!-- begin&#45;&gt;end -->
<g id="edge3" class="edge">
<title>begin&#45;&gt;end</title>
<path fill="none" stroke="#cccccc" d="M776.29,-643.16C920.73,-617.35 1109.75,-555.58 1189.18,-407.8 1246.96,-300.28 1145.6,-169.32 1076.81,-98.12"/>
<polygon fill="#cccccc" stroke="#cccccc" points="1079.56,-95.94 1070.07,-91.24 1074.56,-100.84 1079.56,-95.94"/>
<text xml:space="preserve" text-anchor="start" x="1206.3" y="-348.5" font-family="Helvetica,sans-Serif" font-size="14.00" fill="#e6e6e6">TEXT:</text>
<text xml:space="preserve" text-anchor="start" x="1206.3" y="-333.5" font-family="Helvetica,sans-Serif" font-size="14.00" fill="#e6e6e6">No thanks.</text>
</g>
<!-- buy_flower&#45;&gt;buy_flower -->
<g id="edge4" class="edge">
<title>buy_flower&#45;&gt;buy_flower</title>
<path fill="none" stroke="#cccccc" d="M827.95,-362.6C849.8,-357.68 863.58,-349.75 863.58,-338.8 863.58,-329.82 854.31,-322.87 838.91,-317.95"/>
<polygon fill="#cccccc" stroke="#cccccc" points="839.98,-314.61 829.41,-315.4 838.16,-321.37 839.98,-314.61"/>
<text xml:space="preserve" text-anchor="start" x="863.58" y="-394.5" font-family="Helvetica,sans-Serif" font-size="14.00" fill="#e6e6e6">TEXT:</text>
<text xml:space="preserve" text-anchor="start" x="863.58" y="-379.5" font-family="Helvetica,sans-Serif" font-size="14.00" fill="#e6e6e6">Yes, I&#39;ll buy another.</text>
<text xml:space="preserve" text-anchor="start" x="863.58" y="-348.5" font-family="Helvetica,sans-Serif" font-size="14.00" fill="#e6e6e6">FILTERS:</text>
<text xml:space="preserve" text-anchor="start" x="863.58" y="-333.5" font-family="Helvetica,sans-Serif" font-size="14.00" fill="#e6e6e6">{type: check_value, path: player.gold, op: &gt;=, value: 1}</text>
<text xml:space="preserve" text-anchor="start" x="863.58" y="-286.5" font-family="Helvetica,sans-Serif" font-size="14.00" fill="#e6e6e6">EFFECTS:</text>
<text xml:space="preserve" text-anchor="start" x="863.58" y="-271.5" font-family="Helvetica,sans-Serif" font-size="14.00" fill="#e6e6e6">{type: modify_value, target: player.gold, delta: &#45;1}</text>
</g>
<!-- buy_flower&#45;&gt;insufficient_gold -->
<g id="edge5" class="edge">
<title>buy_flower&#45;&gt;insufficient_gold</title>
<path fill="none" stroke="#cccccc" d="M495.51,-278.6C475.48,-264.76 454.98,-249.46 436.93,-233.8 389.23,-192.42 341.62,-138.32 309.01,-98.8"/>
<polygon fill="#cccccc" stroke="#cccccc" points="311.88,-96.78 302.84,-91.27 306.47,-101.22 311.88,-96.78"/>
<text xml:space="preserve" text-anchor="start" x="436.93" y="-220.5" font-family="Helvetica,sans-Serif" font-size="14.00" fill="#e6e6e6">TEXT:</text>
<text xml:space="preserve" text-anchor="start" x="436.93" y="-205.5" font-family="Helvetica,sans-Serif" font-size="14.00" fill="#e6e6e6">I&#39;m a little short. Can we make a deal?</text>
<text xml:space="preserve" text-anchor="start" x="436.93" y="-174.5" font-family="Helvetica,sans-Serif" font-size="14.00" fill="#e6e6e6">FILTERS:</text>
<text xml:space="preserve" text-anchor="start" x="436.93" y="-159.5" font-family="Helvetica,sans-Serif" font-size="14.00" fill="#e6e6e6">{type: check_value, path: player.gold, op: &lt;, value: 1}</text>
</g>
<!-- buy_flower&#45;&gt;end -->
<g id="edge6" class="edge">
<title>buy_flower&#45;&gt;end</title>
<path fill="none" stroke="#cccccc" d="M689.61,-278.41C712.63,-264.1 736.92,-248.65 759.18,-233.8 826.06,-189.19 900.36,-135.49 952.71,-96.94"/>
<polygon fill="#cccccc" stroke="#cccccc" points="954.7,-99.82 960.67,-91.07 950.55,-94.19 954.7,-99.82"/>
<text xml:space="preserve" text-anchor="start" x="909.53" y="-189.5" font-family="Helvetica,sans-Serif" font-size="14.00" fill="#e6e6e6">TEXT:</text>
<text xml:space="preserve" text-anchor="start" x="909.53" y="-174.5" font-family="Helvetica,sans-Serif" font-size="14.00" fill="#e6e6e6">No thanks, I have enough.</text>
</g>
</g>
</svg>
